<svg width="25" height="25" viewBox="0 0 19 19" fill="none" xmlns="http://www.w3.org/2000/svg">
<path d="M17.7511 0.453934H0.911769C0.506803 0.453934 0.179626 0.78111 0.179626 1.18608V18.0254C0.179626 18.4303 0.506803 18.7575 0.911769 18.7575H17.7511C18.156 18.7575 18.4832 18.4303 18.4832 18.0254V1.18608C18.4832 0.78111 18.156 0.453934 17.7511 0.453934ZM15.637 5.79629H14.175C13.0287 5.79629 12.8068 6.34082 12.8068 7.1416V8.90561H15.5432L15.1863 11.6672H12.8068V18.7575H9.95373V11.6694H7.56741V8.90561H9.95373V6.86934C9.95373 4.50589 11.3974 3.21777 13.5069 3.21777C14.5182 3.21777 15.3853 3.29328 15.6393 3.32759V5.79629H15.637Z" fill="#699BF7"/>
</svg>
