<svg width="25" height="25" viewBox="0 0 24 25" fill="none" xmlns="http://www.w3.org/2000/svg">
<rect width="23.4286" height="23.4286" transform="translate(0.194275 0.891418)" fill="#333436"/>
<path d="M11.8994 2.63712C6.24133 2.63483 1.65857 7.2153 1.65857 12.8688C1.65857 17.3395 4.52537 21.1397 8.51783 22.5354C9.0555 22.6704 8.97313 22.2883 8.97313 22.0275V20.2543C5.86839 20.6181 5.74255 18.5635 5.53435 18.2203C5.11337 17.5019 4.11811 17.3189 4.41554 16.9757C5.12252 16.6119 5.84322 17.0672 6.67832 18.3004C7.28234 19.195 8.46063 19.044 9.05779 18.8953C9.1882 18.3576 9.46733 17.8771 9.85171 17.5042C6.63485 16.9276 5.29412 14.9646 5.29412 12.6309C5.29412 11.4983 5.66705 10.4573 6.39919 9.61764C5.93245 8.23343 6.44267 7.04828 6.5113 6.8721C7.8406 6.75313 9.22252 7.82389 9.33005 7.90855C10.0851 7.70492 10.9476 7.59738 11.9131 7.59738C12.8832 7.59738 13.7481 7.70949 14.51 7.91541C14.7685 7.71865 16.0498 6.79889 17.2852 6.911C17.3516 7.08717 17.8504 8.24487 17.4111 9.61078C18.1524 10.4527 18.5299 11.5029 18.5299 12.6377C18.5299 14.976 17.18 16.9414 13.954 17.5088C14.2303 17.7805 14.4497 18.1046 14.5994 18.4621C14.749 18.8195 14.826 19.2033 14.8257 19.5908V22.1647C14.844 22.3707 14.8257 22.5743 15.1689 22.5743C19.2208 21.2084 22.138 17.3806 22.138 12.8711C22.138 7.2153 17.5529 2.63712 11.8994 2.63712Z" fill="white"/>
</svg>
