<svg width="25" height="25" viewBox="0 0 25 25" fill="none" xmlns="http://www.w3.org/2000/svg">
<path d="M18.8232 0.891434H6.37678C3.34415 0.891434 0.885712 3.34987 0.885712 6.38251V18.8289C0.885712 21.8616 3.34415 24.32 6.37678 24.32H18.8232C21.8558 24.32 24.3143 21.8616 24.3143 18.8289V6.38251C24.3143 3.34987 21.8558 0.891434 18.8232 0.891434Z" fill="#F4F2ED"/>
<path d="M4.69615 19.4731H7.60806V12.4013L3.44821 9.28143V18.2252C3.44821 18.9157 4.00775 19.4731 4.69615 19.4731Z" fill="#4285F4"/>
<path d="M17.5918 19.4731H20.5038C21.1944 19.4731 21.7518 18.9136 21.7518 18.2252V9.28133L17.5918 12.4013" fill="#34A853"/>
<path d="M17.5918 6.99338V12.4013L21.7518 9.28142V7.61726C21.7518 6.07399 19.9901 5.19414 18.7567 6.11975" fill="#FBBC04"/>
<path d="M7.60815 12.4013V6.99348L12.6 10.7372L17.5918 6.9933V12.4012L12.6 16.1452" fill="#EA4335"/>
<path d="M3.44821 7.61735V9.28133L7.60806 12.4013V6.99347L6.44332 6.11985C5.20783 5.19423 3.44821 6.07409 3.44821 7.61735Z" fill="#C5221F"/>
</svg>
