<svg width="25" height="25" viewBox="0 0 24 25" fill="none" xmlns="http://www.w3.org/2000/svg">
<g clip-path="url(#clip0_145_15)">
<path fill-rule="evenodd" clip-rule="evenodd" d="M11.7543 6.26049C10.5622 6.26075 9.39435 6.5968 8.38446 7.23014C7.37458 7.86348 6.56352 8.76849 6.04421 9.84148C5.5249 10.9145 5.31835 12.1121 5.44822 13.297C5.57809 14.482 6.03913 15.6064 6.77851 16.5414C7.5179 17.4765 8.50572 18.1843 9.62882 18.5839C10.7519 18.9835 11.9648 19.0586 13.1287 18.8006C14.2925 18.5427 15.3601 17.9621 16.2092 17.1255C17.0583 16.2888 17.6546 15.2299 17.9297 14.07H12.7305C12.3421 14.07 11.9697 13.9157 11.6951 13.6411C11.4205 13.3665 11.2662 12.9941 11.2662 12.6057C11.2662 12.2174 11.4205 11.8449 11.6951 11.5703C11.9697 11.2957 12.3421 11.1414 12.7305 11.1414H19.5638C19.9522 11.1414 20.3246 11.2957 20.5992 11.5703C20.8738 11.8449 21.0281 12.2174 21.0281 12.6057C21.0281 14.7502 20.2849 16.8283 18.925 18.4865C17.5652 20.1446 15.6727 21.2803 13.5698 21.7001C11.4668 22.1199 9.28334 21.7979 7.39107 20.789C5.49879 19.78 4.01465 18.1465 3.19129 16.1664C2.36792 14.1863 2.25621 11.9821 2.87518 9.92892C3.49415 7.87574 4.80554 6.10053 6.58613 4.90546C8.36671 3.71039 10.5064 3.16933 12.641 3.37439C14.7757 3.57944 16.7733 4.51793 18.2938 6.0301C18.4301 6.16574 18.5384 6.32689 18.6125 6.50437C18.6865 6.68185 18.7249 6.87218 18.7254 7.06449C18.7259 7.2568 18.6885 7.44732 18.6154 7.62518C18.5422 7.80304 18.4348 7.96476 18.2991 8.10109C18.1635 8.23743 18.0024 8.34571 17.8249 8.41977C17.6474 8.49382 17.4571 8.53219 17.2648 8.53269C16.8764 8.5337 16.5035 8.38038 16.2282 8.10646C15.6403 7.51996 14.9425 7.05506 14.1749 6.73832C13.4072 6.42158 12.5847 6.25921 11.7543 6.26049Z" fill="#F76969"/>
</g>
<defs>
<clipPath id="clip0_145_15">
<rect width="23.4286" height="23.4286" fill="white" transform="translate(0.0400085 0.891434)"/>
</clipPath>
</defs>
</svg>
