



<svg width="25" height="25" viewBox="0 0 20 21" fill="none" xmlns="http://www.w3.org/2000/svg">
<path d="M18.4455 0.84381H1.90882C1.72293 0.841229 1.53835 0.87529 1.36563 0.944049C1.19291 1.01281 1.03542 1.11492 0.902166 1.24455C0.76891 1.37418 0.662495 1.52879 0.588999 1.69955C0.515502 1.87031 0.476362 2.05387 0.473816 2.23976V18.9717C0.476362 19.1576 0.515502 19.3411 0.588999 19.5119C0.662495 19.6826 0.76891 19.8372 0.902166 19.9669C1.03542 20.0965 1.19291 20.1986 1.36563 20.2674C1.53835 20.3361 1.72293 20.3702 1.90882 20.3676H18.4455C18.6314 20.3702 18.8159 20.3361 18.9887 20.2674C19.1614 20.1986 19.3189 20.0965 19.4521 19.9669C19.5854 19.8372 19.6918 19.6826 19.7653 19.5119C19.8388 19.3411 19.8779 19.1576 19.8805 18.9717V2.23976C19.8779 2.05387 19.8388 1.87031 19.7653 1.69955C19.6918 1.52879 19.5854 1.37418 19.4521 1.24455C19.3189 1.11492 19.1614 1.01281 18.9887 0.944049C18.8159 0.87529 18.6314 0.841229 18.4455 0.84381ZM6.36024 17.1852H3.43167V8.39952H6.36024V17.1852ZM4.89596 7.16952C4.49207 7.16952 4.10473 7.00908 3.81914 6.72349C3.53354 6.4379 3.3731 6.05055 3.3731 5.64667C3.3731 5.24278 3.53354 4.85544 3.81914 4.56984C4.10473 4.28425 4.49207 4.12381 4.89596 4.12381C5.11042 4.09949 5.32761 4.12074 5.53329 4.18617C5.73897 4.25161 5.92851 4.35975 6.0895 4.50351C6.2505 4.64728 6.37931 4.82342 6.4675 5.02042C6.55569 5.21742 6.60128 5.43083 6.60128 5.64667C6.60128 5.86251 6.55569 6.07591 6.4675 6.27291C6.37931 6.46991 6.2505 6.64606 6.0895 6.78982C5.92851 6.93359 5.73897 7.04173 5.53329 7.10716C5.32761 7.1726 5.11042 7.19385 4.89596 7.16952ZM16.9226 17.1852H13.9941V12.4702C13.9941 11.289 13.5743 10.5179 12.5102 10.5179C12.1809 10.5203 11.8603 10.6236 11.5915 10.8138C11.3227 11.0041 11.1187 11.2721 11.0069 11.5819C10.9305 11.8113 10.8974 12.053 10.9093 12.2945V17.1755H7.98072V8.38976H10.9093V9.62952C11.1753 9.16789 11.5623 8.78758 12.0284 8.52955C12.4946 8.27153 13.0223 8.14557 13.5548 8.16524C15.5071 8.16524 16.9226 9.42453 16.9226 12.1286V17.1852Z" fill="#699BF7"/>
</svg>
